opsz144_wght1000_wdth125.ufo
<glyph name="A" format="2">
	<unicode hex="0041"/>
	<advance width="1449"/>
	<outline>
		<contour>
			<point x="-54.8488769531" y="0" type="line"/>
			<point x="-52.8488769531" y="99.0002441406" type="line"/>
			<point x="145.0786132812" y="133.0002441406" type="line"/>
			<point x="321.6145019531" y="591.2958374023" type="line"/>
			<point x="669.6051025391" y="1490.1916503906" type="line"/>
			<point x="840.8011474609" y="1490.1916503906" type="line"/>
			<point x="1148.7116699219" y="629.8232421875" type="line"/>
			<point x="1316.6356201172" y="133.0002441406" type="line"/>
			<point x="1482.0244140625" y="99.0002441406" type="line"/>
			<point x="1480.0244140625" y="0" type="line"/>
			<point x="944.5238647461" y="0" type="line"/>
			<point x="946.5238647461" y="99.0002441406" type="line"/>
			<point x="1124.0665283203" y="137.0002441406" type="line"/>
			<point x="979.1655273438" y="596" type="line"/>
			<point x="786.6962280273" y="1151.7889404297" type="line"/>
			<point x="745.0922241211" y="1284.1787719727" type="line"/>
			<point x="745.0922241211" y="1284.1787719727" type="line"/>
			<point x="701.9882202148" y="1150.7889404297" type="line"/>
			<point x="469.9225463867" y="574.946472168" type="line"/>
			<point x="317.9969482422" y="134.0002441406" type="line"/>
			<point x="565.2318725586" y="99.0002441406" type="line"/>
			<point x="563.2318725586" y="0" type="line"/>
		</contour>
		<contour>
			<point x="559.5075683594" y="661" type="line"/>
			<point x="714.7074584961" y="622.5" type="line"/>
			<point x="738.9624633789" y="495.5" type="line"/>
			<point x="555.5075683594" y="529" type="line"/>
		</contour>
		<contour>
			<point x="362.8328857422" y="495.5" type="line"/>
			<point x="385.1633911133" y="621" type="line"/>
			<point x="559.5075683594" y="661" type="line"/>
			<point x="555.5075683594" y="529" type="line"/>
		</contour>
	</outline>
	<anchor name="bottom" x="735" y="0"/>
	<anchor name="ogonek" x="1318" y="0"/>
	<anchor name="tonos" x="492" y="1500"/>
	<anchor name="top" x="753" y="1500"/>
</glyph>
<glyph name="D" format="2">
	<unicode hex="0044"/>
	<advance width="1643"/>
	<outline>
		<contour>
			<point x="82.9979248047" y="0" type="line"/>
			<point x="82.9979248047" y="99.0002441406" type="line"/>
			<point x="290.0028076172" y="138.0002441406" type="line"/>
			<point x="292.0028076172" y="759" type="line"/>
			<point x="290.0028076172" y="1353.8397216797" type="line"/>
			<point x="82.9979248047" y="1390.8397216797" type="line"/>
			<point x="82.9979248047" y="1500" type="line"/>
			<point x="968.5773925781" y="1500" type="line" smooth="yes"/>
			<point x="1274.9276123047" y="1502"/>
			<point x="1560.9287010931" y="1135.0806451613"/>
			<point x="1560.9287010931" y="777" type="qcurve" smooth="yes"/>
			<point x="1560.9287010931" y="425.3870967742"/>
			<point x="1240.1793961063" y="-9"/>
			<point x="943.8786502961" y="-6" type="qcurve" smooth="yes"/>
		</contour>
		<contour>
			<point x="464.5691232989" y="109" type="line"/>
			<point x="510.4743041992" y="106.5"/>
			<point x="740.86667953" y="100"/>
			<point x="856.5040027249" y="100" type="qcurve" smooth="yes"/>
			<point x="1095.1312629946" y="100"/>
			<point x="1361.7057692005" y="472.6806522492"/>
			<point x="1361.6083885931" y="749" type="qcurve" smooth="yes"/>
			<point x="1360.0457369897" y="1035.5504209457"/>
			<point x="1034.5859375" y="1376"/>
			<point x="791.5349121094" y="1376" type="qcurve" smooth="yes"/>
			<point x="689.0211181641" y="1376"/>
			<point x="497.0946655273" y="1361.5"/>
			<point x="465.5691232989" y="1356" type="qcurve"/>
			<point x="461.2868652344" y="748" type="line"/>
		</contour>
	</outline>
	<anchor name="bottom" x="686" y="0"/>
	<anchor name="center" x="438" y="754"/>
	<anchor name="top" x="686" y="1500"/>
	<anchor name="liga" x="1590" y="0"/>
</glyph>
<glyph name="G" format="2">
	<unicode hex="0047"/>
	<advance width="1703"/>
	<outline>
		<contour>
			<point x="83.9990234375" y="724" type="qcurve" smooth="yes"/>
			<point x="83.9990234375" y="1131.4881591797"/>
			<point x="514.9936523438" y="1512.1149902344"/>
			<point x="858.6567993164" y="1512.1149902344" type="qcurve" smooth="yes"/>
			<point x="994.3511352539" y="1512.1149902344"/>
			<point x="1170.4550170898" y="1468.4498291016"/>
			<point x="1264.3451538086" y="1439" type="qcurve"/>
			<point x="1307.0404663086" y="1500" type="line"/>
			<point x="1437.9682006836" y="1500" type="line"/>
			<point x="1437.9682006836" y="1014.548828125" type="line"/>
			<point x="1317.9486694336" y="1014.548828125" type="line"/>
			<point x="1245.5858764648" y="1221" type="line" smooth="yes"/>
			<point x="1206.5858764648" y="1326"/>
			<point x="1074.1251831055" y="1389.6149902344"/>
			<point x="845.4279174805" y="1391.6149902344" type="qcurve" smooth="yes"/>
			<point x="630.872253418" y="1393.6149902344"/>
			<point x="275.0461425781" y="1128.859375"/>
			<point x="271.0461425781" y="750" type="qcurve" smooth="yes"/>
			<point x="267.0461425781" y="407.1091918945"/>
			<point x="616.4746704102" y="111.8850097656"/>
			<point x="852.8110961914" y="111.8850097656" type="qcurve" smooth="yes"/>
			<point x="1006.2030029297" y="111.8850097656"/>
			<point x="1253.5924072266" y="132.3348388672"/>
			<point x="1317.3677368164" y="144.5" type="qcurve"/>
			<point x="1317.3677368164" y="580.9997558594" type="line"/>
			<point x="1107.7476806641" y="610.9997558594" type="line"/>
			<point x="1107.7476806641" y="725" type="line"/>
			<point x="1671.0270996094" y="725" type="line"/>
			<point x="1671.0270996094" y="610.9997558594" type="line"/>
			<point x="1499.8701782227" y="580.9997558594" type="line"/>
			<point x="1499.8701782227" y="199" type="line"/>
			<point x="1451.154296875" y="116.3348388672"/>
			<point x="1077.1364135742" y="-14.1149902344"/>
			<point x="887.0211791992" y="-14.1149902344" type="qcurve" smooth="yes"/>
			<point x="553.0921630859" y="-14.1149902344"/>
			<point x="83.9990234375" y="344.7463378906"/>
		</contour>
	</outline>
	<anchor name="bottom" x="872" y="0"/>
	<anchor name="top" x="836" y="1500"/>
</glyph>
<glyph name="H" format="2">
	<unicode hex="0048"/>
	<advance width="1738"/>
	<outline>
		<contour>
			<point x="82.9979248047" y="0" type="line"/>
			<point x="82.9979248047" y="99.0002441406" type="line"/>
			<point x="290.0028076172" y="134.0002441406" type="line"/>
			<point x="292.0028076172" y="775" type="line"/>
			<point x="290.0028076172" y="1356.8397216797" type="line"/>
			<point x="82.9979248047" y="1390.8397216797" type="line"/>
			<point x="82.9979248047" y="1500" type="line"/>
			<point x="671.2917480469" y="1500" type="line"/>
			<point x="671.2917480469" y="1390.8397216797" type="line"/>
			<point x="469.2868652344" y="1356.8397216797" type="line"/>
			<point x="467.2868652344" y="777" type="line"/>
			<point x="469.2868652344" y="134.0002441406" type="line"/>
			<point x="671.2917480469" y="99.0002441406" type="line"/>
			<point x="671.2917480469" y="0" type="line"/>
		</contour>
		<contour>
			<point x="223.2868652344" y="709.5" type="line"/>
			<point x="223.2868652344" y="842" type="line"/>
			<point x="831.3271484375" y="835" type="line"/>
			<point x="1518.2758789062" y="842" type="line"/>
			<point x="1518.2758789062" y="709.5" type="line"/>
			<point x="831.3271484375" y="709.5" type="line"/>
		</contour>
		<contour>
			<point x="1065.9484154485" y="0" type="line"/>
			<point x="1065.9484154485" y="99.0002441406" type="line"/>
			<point x="1267.953298261" y="134.0002441406" type="line"/>
			<point x="1270.2758789062" y="777" type="line"/>
			<point x="1267.953298261" y="1356.8397216797" type="line"/>
			<point x="1065.9484154485" y="1390.8397216797" type="line"/>
			<point x="1065.9484154485" y="1500" type="line"/>
			<point x="1654.2422386907" y="1500" type="line"/>
			<point x="1654.2422386907" y="1390.8397216797" type="line"/>
			<point x="1447.2373558782" y="1356.8397216797" type="line"/>
			<point x="1445.2373558782" y="775" type="line"/>
			<point x="1447.2373558782" y="134.0002441406" type="line"/>
			<point x="1654.2422386907" y="99.0002441406" type="line"/>
			<point x="1654.2422386907" y="0" type="line"/>
		</contour>
	</outline>
	<anchor name="bottom" x="870" y="0"/>
	<anchor name="center" x="870" y="1079"/>
	<anchor name="top" x="870" y="1500"/>
	<anchor name="tonos" x="0" y="1500"/>
	<anchor name="cy_descender" x="1658" y="100"/>
</glyph>
<glyph name="I" format="2">
	<unicode hex="0049"/>
	<advance width="780"/>
	<outline>
		<contour>
			<point x="93.4947509766" y="0" type="line"/>
			<point x="93.4947509766" y="99.0002441406" type="line"/>
			<point x="300.0383300781" y="134.0002441406" type="line"/>
			<point x="302.0383300781" y="754" type="line"/>
			<point x="300.0383300781" y="1356.8397216797" type="line"/>
			<point x="93.4947509766" y="1390.8397216797" type="line"/>
			<point x="93.4947509766" y="1500" type="line"/>
			<point x="686.8659667969" y="1500" type="line"/>
			<point x="686.8659667969" y="1390.8397216797" type="line"/>
			<point x="480.3223876953" y="1356.8397216797" type="line"/>
			<point x="478.3223876953" y="754" type="line"/>
			<point x="480.3223876953" y="133.0002441406" type="line"/>
			<point x="686.8659667969" y="99.0002441406" type="line"/>
			<point x="686.8659667969" y="0" type="line"/>
		</contour>
	</outline>
	<anchor name="bottom" x="390" y="0"/>
	<anchor name="ogonek" x="526" y="0"/>
	<anchor name="top" x="390" y="1500"/>
	<anchor name="tonos" x="0" y="1500"/>
	<anchor name="yu_dash" x="380" y="755"/>
	<anchor name="_Yeru_I" x="82" y="0"/>
	<anchor name="liga" x="780" y="0"/>
</glyph>
<glyph name="J" format="2">
	<unicode hex="004A"/>
	<advance width="767"/>
	<outline>
		<contour>
			<point x="22.7495117188" y="-203.404296875" type="qcurve"/>
			<point x="29.7495117188" y="-93.4039916992" type="line"/>
			<point x="50.9326171875" y="-93.883972168"/>
			<point x="106.0852050781" y="-93.1639404297"/>
			<point x="142.5124511719" y="-91.8439331055" type="qcurve" smooth="yes"/>
			<point x="218.3364257812" y="-89.203918457"/>
			<point x="319.0383300781" y="-47.0441894531"/>
			<point x="320.0383300781" y="69.9558105469" type="qcurve" smooth="yes"/>
			<point x="323.0383300781" y="674" type="line"/>
			<point x="321.0383300781" y="1356.8397216797" type="line"/>
			<point x="69.8027954102" y="1390.8397216797" type="line"/>
			<point x="69.8027954102" y="1500" type="line"/>
			<point x="733.23046875" y="1500" type="line"/>
			<point x="670" y="1384" type="line"/>
			<point x="480" y="1350" type="line"/>
			<point x="505.9952392578" y="674" type="line"/>
			<point x="502.9952392578" y="173.9558105469" type="line" smooth="yes"/>
			<point x="499.0914306641" y="-0.0441894531"/>
			<point x="339.9139404297" y="-215.4042358398"/>
			<point x="206.1602783203" y="-215.4042358398" type="qcurve" smooth="yes"/>
			<point x="180.3099365234" y="-215.4042358398"/>
			<point x="76.9020996094" y="-208.0042724609"/>
		</contour>
	</outline>
	<anchor name="bottom" x="376" y="-208"/>
	<anchor name="top" x="376" y="1500"/>
	<anchor name="_liga" x="0" y="0"/>
</glyph>
<glyph name="K" format="2">
	<unicode hex="004B"/>
	<advance width="1385"/>
	<outline>
		<contour>
			<point x="82.9979248047" y="0" type="line"/>
			<point x="82.9979248047" y="99.0002441406" type="line"/>
			<point x="290.0028076172" y="134.0002441406" type="line"/>
			<point x="292.0028076172" y="754" type="line"/>
			<point x="290.0028076172" y="1356.8397216797" type="line"/>
			<point x="82.9979248047" y="1390.8397216797" type="line"/>
			<point x="82.9979248047" y="1500" type="line"/>
			<point x="689.7530517578" y="1500" type="line"/>
			<point x="689.7530517578" y="1390.8397216797" type="line"/>
			<point x="468.2868652344" y="1356.8397216797" type="line"/>
			<point x="463.2868652344" y="754.9244995117" type="line"/>
			<point x="468.2868652344" y="134.0002441406" type="line"/>
			<point x="651.2917480469" y="99.0002441406" type="line"/>
			<point x="651.2917480469" y="0" type="line"/>
		</contour>
		<contour>
			<point x="368.7902832031" y="432.1956176758" type="line"/>
			<point x="365.7902832031" y="605.2344970703" type="line"/>
			<point x="1096.0083007812" y="1376.8397216797" type="line"/>
			<point x="843.389465332" y="1391.8397216797" type="line"/>
			<point x="843.389465332" y="1500" type="line"/>
			<point x="1563.8970947266" y="1500" type="line"/>
			<point x="1563.8970947266" y="1391.8397216797" type="line"/>
			<point x="1278.5083007812" y="1376.8397216797" type="line"/>
			<point x="762.440612793" y="884.3634033203" type="line"/>
			<point x="737.8427734375" y="853.3634033203" type="line"/>
		</contour>
		<contour>
			<point x="635.987487793" y="801.8547973633" type="line"/>
			<point x="735.4807739258" y="923.6911621094" type="line"/>
			<point x="1316.401550293" y="134.0002441406" type="line"/>
			<point x="1491.5590820312" y="99.0002441406" type="line"/>
			<point x="1491.5590820312" y="0" type="line"/>
			<point x="918.413269043" y="0" type="line"/>
			<point x="918.413269043" y="99.0002441406" type="line"/>
			<point x="1083.2633666992" y="134.0002441406" type="line"/>
		</contour>
	</outline>
	<anchor name="bottom" x="812" y="0"/>
	<anchor name="top" x="770" y="1500"/>
</glyph>
<glyph name="L" format="2">
	<unicode hex="004C"/>
	<advance width="1338"/>
	<outline>
		<contour>
			<point x="124.9979248047" y="0" type="line"/>
			<point x="124.9979248047" y="99.0002441406" type="line"/>
			<point x="290.0028076172" y="136.0002441406" type="line"/>
			<point x="292.0028076172" y="754" type="line"/>
			<point x="290.0028076172" y="1356.8397216797" type="line"/>
			<point x="82.9979248047" y="1389.8397216797" type="line"/>
			<point x="82.9979248047" y="1500" type="line"/>
			<point x="667.8307495117" y="1500" type="line"/>
			<point x="667.8307495117" y="1390.8397216797" type="line"/>
			<point x="470.2868652344" y="1356.8397216797" type="line"/>
			<point x="469.2868652344" y="754" type="line"/>
			<point x="471.2868652344" y="142.5" type="line"/>
			<point x="518.2868652344" y="117.5" type="line"/>
			<point x="1056.71484375" y="117.5" type="line"/>
			<point x="1211.71484375" y="529.0385742188" type="line"/>
			<point x="1329.8608398438" y="529.0385742188" type="line"/>
			<point x="1282.8608398438" y="0" type="line"/>
		</contour>
	</outline>
	<anchor name="bottom" x="705" y="0"/>
	<anchor name="centerright" x="928" y="750"/>
	<anchor name="top" x="632" y="1500"/>
	<anchor name="topright" x="784" y="1001"/>
	<anchor name="center" x="378" y="750"/>
	<anchor name="liga" x="1264" y="0"/>
</glyph>
<glyph name="M" format="2">
	<unicode hex="004D"/>
	<advance width="2231"/>
	<outline>
		<contour>
			<point x="61.9979248047" y="0" type="line"/>
			<point x="61.9979248047" y="99.0002441406" type="line"/>
			<point x="304.0028076172" y="134.0002441406" type="line"/>
			<point x="310.0028076172" y="747" type="line"/>
			<point x="310.0028076172" y="1357.8397216797" type="line"/>
			<point x="71.9979248047" y="1391.8397216797" type="line"/>
			<point x="71.9979248047" y="1500" type="line"/>
			<point x="641.8262939453" y="1500" type="line"/>
			<point x="915.8770141602" y="772.8948974609" type="line"/>
			<point x="1079.2805786133" y="327.9119873047" type="line"/>
			<point x="1142.97265625" y="156.6039428711" type="line"/>
			<point x="1142.97265625" y="156.6039428711" type="line"/>
			<point x="1203.9729003906" y="328.6038208008" type="line"/>
			<point x="1394.3081665039" y="865.3489990234" type="line"/>
			<point x="1623.1586914062" y="1500" type="line"/>
			<point x="2147.7031860352" y="1500" type="line"/>
			<point x="2147.7031860352" y="1391.8397216797" type="line"/>
			<point x="1941.6983032227" y="1357.8397216797" type="line"/>
			<point x="1939.6983032227" y="751" type="line"/>
			<point x="1941.6983032227" y="134.0002441406" type="line"/>
			<point x="2147.7031860352" y="99.0002441406" type="line"/>
			<point x="2147.7031860352" y="0" type="line"/>
			<point x="1532.5748901367" y="2" type="line"/>
			<point x="1532.5748901367" y="101.0002441406" type="line"/>
			<point x="1750.1958618164" y="134.0002441406" type="line"/>
			<point x="1753.1958618164" y="749" type="line"/>
			<point x="1747.1958618164" y="1271" type="line"/>
			<point x="1747.1958618164" y="1396" type="line"/>
			<point x="1747.1958618164" y="1396" type="line"/>
			<point x="1704.1673583984" y="1266.4183349609" type="line"/>
			<point x="1523.2734985352" y="818.471496582" type="line"/>
			<point x="1214.0254516602" y="7" type="line"/>
			<point x="1007.6585083008" y="7" type="line"/>
			<point x="737.7469482422" y="683.7125244141" type="line"/>
			<point x="487.5721435547" y="1268.5346679688" type="line"/>
			<point x="433.5028076172" y="1410" type="line"/>
			<point x="433.5028076172" y="1410" type="line"/>
			<point x="431.5028076172" y="1271" type="line"/>
			<point x="425.5028076172" y="747" type="line"/>
			<point x="431.5028076172" y="134.0002441406" type="line"/>
			<point x="669.0463867188" y="101.0002441406" type="line"/>
			<point x="669.0463867188" y="2" type="line"/>
		</contour>
	</outline>
	<anchor name="bottom" x="1025" y="0"/>
	<anchor name="top" x="1058" y="1500"/>
</glyph>
<glyph name="N" format="2">
	<unicode hex="004E"/>
	<advance width="1549"/>
	<outline>
		<contour>
			<point x="82.9979248047" y="0" type="line"/>
			<point x="82.9979248047" y="99.0002441406" type="line"/>
			<point x="303.0028076172" y="134.0002441406" type="line"/>
			<point x="307.0028076172" y="755" type="line"/>
			<point x="305.0028076172" y="1357.8397216797" type="line"/>
			<point x="82.9979248047" y="1391.8397216797" type="line"/>
			<point x="82.9979248047" y="1500" type="line"/>
			<point x="495.0060424805" y="1500" type="line"/>
			<point x="887.8276367188" y="769.0422363281" type="line"/>
			<point x="1148" y="412" type="line"/>
			<point x="1206" y="310" type="line"/>
			<point x="1215" y="313" type="line"/>
			<point x="1211" y="434" type="line"/>
			<point x="1143.6043701172" y="819.4536132812" type="line"/>
			<point x="1138.6043701172" y="1356.8397216797" type="line"/>
			<point x="903.5220947266" y="1391.8397216797" type="line"/>
			<point x="903.5220947266" y="1500" type="line"/>
			<point x="1479.6092529297" y="1500" type="line"/>
			<point x="1479.6092529297" y="1391.8397216797" type="line"/>
			<point x="1256.6043701172" y="1357.8397216797" type="line"/>
			<point x="1254.6043701172" y="810.4536132812" type="line"/>
			<point x="1256.6043701172" y="0" type="line"/>
			<point x="1093.279296875" y="0" type="line"/>
			<point x="786.2791748047" y="650.5233154297" type="line"/>
			<point x="472" y="1219" type="line"/>
			<point x="414" y="1321" type="line"/>
			<point x="405" y="1318" type="line"/>
			<point x="410" y="1198" type="line"/>
			<point x="417.0028076172" y="826.9106445312" type="line"/>
			<point x="421.0028076172" y="134.0002441406" type="line"/>
			<point x="669.5463867188" y="99.0002441406" type="line"/>
			<point x="669.5463867188" y="0" type="line"/>
		</contour>
	</outline>
	<anchor name="bottom" x="800" y="0"/>
	<anchor name="top" x="800" y="1500"/>
	<anchor name="engtail" x="1324" y="0"/>
	<anchor name="liga" x="1600" y="0"/>
</glyph>
<glyph name="O" format="2">
	<unicode hex="004F"/>
	<advance width="1674"/>
	<outline>
		<contour>
			<point x="79.9990234375" y="747" type="qcurve" smooth="yes"/>
			<point x="79.9990234375" y="1082.4498291016"/>
			<point x="536.3645019531" y="1520.1149902344"/>
			<point x="836.2756958008" y="1520.1149902344" type="qcurve" smooth="yes"/>
			<point x="1154.7216186523" y="1520.1149902344"/>
			<point x="1593.7769165039" y="1125.4498291016"/>
			<point x="1593.7769165039" y="772" type="qcurve" smooth="yes"/>
			<point x="1593.7769165039" y="418.5501708984"/>
			<point x="1158.4584960938" y="-14.1149902344"/>
			<point x="841.6671280399" y="-14.1149902344" type="qcurve" smooth="yes"/>
			<point x="518.866027832" y="-14.1149902344"/>
			<point x="79.9990234375" y="411.5501708984"/>
		</contour>
		<contour>
			<point x="272.955078125" y="761" type="qcurve" smooth="yes"/>
			<point x="272.955078125" y="485.9822998047"/>
			<point x="555.7728881836" y="105.3850097656"/>
			<point x="844.9655151367" y="105.3850097656" type="qcurve" smooth="yes"/>
			<point x="1134.7767944336" y="105.3850097656"/>
			<point x="1394.8208618164" y="477.2963867188"/>
			<point x="1394.6595714938" y="762" type="qcurve" smooth="yes"/>
			<point x="1394.8208618164" y="1037.306640625"/>
			<point x="1095.3961791992" y="1394.6149902344"/>
			<point x="825.9655151367" y="1394.6149902344" type="qcurve" smooth="yes"/>
			<point x="554.9635620117" y="1394.6149902344"/>
			<point x="272.955078125" y="1044.0051269531"/>
		</contour>
	</outline>
	<anchor name="bottom" x="832" y="0"/>
	<anchor name="center" x="832" y="750"/>
	<anchor name="ogonek" x="1064" y="0"/>
	<anchor name="top" x="832" y="1500"/>
	<anchor name="topright" x="1028" y="1500"/>
	<anchor name="tonos" x="140" y="1500"/>
	<anchor name="_yu_dash" x="169" y="755"/>
</glyph>
<glyph name="P" format="2">
	<unicode hex="0050"/>
	<advance width="1368"/>
	<outline>
		<contour>
			<point x="82.9979248047" y="0" type="line"/>
			<point x="82.9979248047" y="99.0002441406" type="line"/>
			<point x="290.0028076172" y="134.0002441406" type="line"/>
			<point x="292.3129882812" y="754" type="line"/>
			<point x="290.0028076172" y="1356.8397216797" type="line"/>
			<point x="82.9979248047" y="1390.8397216797" type="line"/>
			<point x="82.9979248047" y="1500" type="line"/>
			<point x="772.0276489258" y="1500" type="line" smooth="yes"/>
			<point x="1005.8164672852" y="1500"/>
			<point x="1279.3648681641" y="1279"/>
			<point x="1279.3648681641" y="1048" type="qcurve" smooth="yes"/>
			<point x="1279.3648681641" y="814"/>
			<point x="968.5217895508" y="549.5"/>
			<point x="706.0025063792" y="549.5" type="qcurve" smooth="yes"/>
			<point x="614.1145019531" y="549.5"/>
			<point x="458.2868652344" y="578"/>
			<point x="386.1850585938" y="593.5" type="qcurve"/>
			<point x="395.1850585938" y="707.5" type="line"/>
			<point x="444.6988525391" y="697"/>
			<point x="631.559753418" y="667.5"/>
			<point x="723.8813476562" y="667.5" type="qcurve" smooth="yes"/>
			<point x="892.0734863281" y="667.5"/>
			<point x="1131.4990234375" y="855.5213012695"/>
			<point x="1128.4990234375" y="1032" type="qcurve" smooth="yes"/>
			<point x="1124.4990234375" y="1229.9171142578"/>
			<point x="900.1112670898" y="1379.5"/>
			<point x="777.6337280273" y="1374.5" type="qcurve" smooth="yes"/>
			<point x="479.2868652344" y="1374.5" type="line"/>
			<point x="464.2868652344" y="1355.5" type="line"/>
			<point x="461.2868652344" y="764" type="line"/>
			<point x="463.2868652344" y="137.0002441406" type="line"/>
			<point x="682.369140625" y="99.0002441406" type="line"/>
			<point x="682.369140625" y="0" type="line"/>
		</contour>
	</outline>
	<anchor name="bottom" x="634" y="0"/>
	<anchor name="top" x="634" y="1500"/>
</glyph>
<glyph name="Q" format="2">
	<unicode hex="0051"/>
	<advance width="1673"/>
	<outline>
		<contour>
			<point x="79.9990234375" y="747.7754516602" type="qcurve" smooth="yes"/>
			<point x="80.9990234375" y="1081.7473144531"/>
			<point x="548.3521118164" y="1522.0766601562"/>
			<point x="835.1900634766" y="1522.0766601562" type="qcurve" smooth="yes"/>
			<point x="1155.9855957031" y="1522.0766601562"/>
			<point x="1595.1565551758" y="1125.0574951172"/>
			<point x="1593.1565551758" y="772" type="qcurve" smooth="yes"/>
			<point x="1591.1565551758" y="421.9425048828"/>
			<point x="1134.4555053711" y="-7.9188232422"/>
			<point x="832.0989990234" y="-7.9188232422" type="qcurve" smooth="yes"/>
			<point x="513.0103149414" y="-7.9188232422"/>
			<point x="78.9990234375" y="419.9053955078"/>
		</contour>
		<contour>
			<point x="272.955078125" y="760.2245483398" type="qcurve" smooth="yes"/>
			<point x="271.955078125" y="478.5749511719"/>
			<point x="550.0557861328" y="102.5811767578"/>
			<point x="840.7718505859" y="102.0811767578" type="qcurve" smooth="yes"/>
			<point x="1129.9166259766" y="101.5811767578"/>
			<point x="1392.2005004883" y="474.8931274414"/>
			<point x="1394.2005004883" y="762" type="qcurve" smooth="yes"/>
			<point x="1396.2005004883" y="1043.649597168"/>
			<point x="1096.5863647461" y="1396.5766601562"/>
			<point x="825.9655151367" y="1396.5766601562" type="qcurve" smooth="yes"/>
			<point x="554.7731323242" y="1396.5766601562"/>
			<point x="273.955078125" y="1048.8678588867"/>
		</contour>
		<contour>
			<point x="631.7095947266" y="-63.7453613281" type="qcurve"/>
			<point x="1240.0924682617" y="-230.8533935547" type="line"/>
			<point x="1319.6701660156" y="-240.6635742188"/>
			<point x="1424.3295288086" y="-170.9376220703"/>
			<point x="1475.5516967773" y="-76.9376220703" type="qcurve"/>
			<point x="1559.5516967773" y="-117.9376220703" type="line"/>
			<point x="1501.9337158203" y="-285.7130737305"/>
			<point x="1356.0660400391" y="-373.2968139648"/>
			<point x="1235.1466064453" y="-378.9010009766" type="qcurve"/>
			<point x="633.9086303711" y="-231.9272460938" type="line"/>
			<point x="531.1102294922" y="-220.9272460938"/>
			<point x="378.7811279297" y="-256.3469848633"/>
			<point x="295.3876953125" y="-321.5336914062" type="qcurve"/>
			<point x="229.8876953125" y="-269.5336914062" type="line"/>
			<point x="320.2116699219" y="-181.1025390625"/>
			<point x="589.0067749023" y="-43.154296875"/>
		</contour>
		<contour>
			<point x="521.2811279297" y="-87.8472900391" type="line"/>
			<point x="916.3849487305" y="330.7036132812" type="line"/>
			<point x="1007.1442260742" y="248.5" type="line"/>
			<point x="670.3505859375" y="-116.5" type="line"/>
		</contour>
	</outline>
	<anchor name="bottom" x="832" y="0"/>
	<anchor name="top" x="823" y="1502"/>
</glyph>
<glyph name="T" format="2">
	<unicode hex="0054"/>
	<advance width="1543"/>
	<outline>
		<contour>
			<point x="38" y="1047" type="line"/>
			<point x="38" y="1500" type="line"/>
			<point x="1505" y="1500" type="line"/>
			<point x="1505" y="1047" type="line"/>
			<point x="1395" y="1047" type="line"/>
			<point x="1360" y="1375" type="line"/>
			<point x="873" y="1375" type="line"/>
			<point x="854" y="1355" type="line"/>
			<point x="854" y="749" type="line"/>
			<point x="858" y="136" type="line"/>
			<point x="1073" y="100" type="line"/>
			<point x="1073" y="0" type="line"/>
			<point x="462" y="0" type="line"/>
			<point x="462" y="100" type="line"/>
			<point x="679" y="136" type="line"/>
			<point x="683" y="749" type="line"/>
			<point x="683" y="1355" type="line"/>
			<point x="674" y="1375" type="line"/>
			<point x="183" y="1375" type="line"/>
			<point x="148" y="1047" type="line"/>
		</contour>
	</outline>
	<anchor name="bottom" x="651" y="0"/>
	<anchor name="center" x="644" y="750"/>
	<anchor name="top" x="644" y="1500"/>
	<anchor name="cy_descender" x="951" y="100"/>
</glyph>
<glyph name="U" format="2">
	<unicode hex="0055"/>
	<advance width="1862"/>
	<outline>
		<contour>
			<point x="61.4300537109" y="1391.8397216797" type="line"/>
			<point x="61.4300537109" y="1500" type="line"/>
			<point x="666.4672241211" y="1500" type="line"/>
			<point x="666.4672241211" y="1391.8397216797" type="line"/>
			<point x="464.6162109375" y="1357.8397216797" type="line"/>
			<point x="461.6162109375" y="864" type="line"/>
			<point x="461.6162109375" y="606.5" type="line" smooth="yes"/>
			<point x="461.4200439453" y="358.638671875"/>
			<point x="694.760925293" y="79.7475585938"/>
			<point x="924.8593139648" y="79.7475585938" type="qcurve" smooth="yes"/>
			<point x="1166.0529174805" y="79.7475585938"/>
			<point x="1462.9889526367" y="349.138671875"/>
			<point x="1466.7435913086" y="628" type="qcurve" smooth="yes"/>
			<point x="1465.7435913086" y="864" type="line"/>
			<point x="1462.2088623047" y="1357.8397216797" type="line"/>
			<point x="1217.6652832031" y="1391.8397216797" type="line"/>
			<point x="1217.6652832031" y="1500" type="line"/>
			<point x="1822.7137451172" y="1500" type="line"/>
			<point x="1822.7137451172" y="1391.8397216797" type="line"/>
			<point x="1593.7088623047" y="1357.8397216797" type="line"/>
			<point x="1590.7088623047" y="864" type="line"/>
			<point x="1589.7435913086" y="585" type="line" smooth="yes"/>
			<point x="1588.9334106445" y="301.9425048828"/>
			<point x="1368.7033691406" y="-14.1149902344"/>
			<point x="941.2932739258" y="-14.1149902344" type="qcurve" smooth="yes"/>
			<point x="521.6448364258" y="-14.1149902344"/>
			<point x="280.8962402344" y="297.7463378906"/>
			<point x="284.8962402344" y="576" type="qcurve" smooth="yes"/>
			<point x="288.1871337891" y="864" type="line"/>
			<point x="286.8962402344" y="1357.8397216797" type="line"/>
		</contour>
	</outline>
	<anchor name="bottom" x="832" y="0"/>
	<anchor name="ogonek" x="1042" y="0"/>
	<anchor name="top" x="832" y="1500"/>
	<anchor name="topright" x="1590" y="1500"/>
</glyph>
<glyph name="V" format="2">
	<unicode hex="0056"/>
	<advance width="1506"/>
	<outline>
		<contour>
			<point x="-33.8540039062" y="1391.8397216797" type="line"/>
			<point x="-33.8540039062" y="1500" type="line"/>
			<point x="521.4027099609" y="1500" type="line"/>
			<point x="521.4027099609" y="1391.8397216797" type="line"/>
			<point x="326.5526123047" y="1364.8397216797" type="line"/>
			<point x="557.3305664062" y="724.755065918" type="line"/>
			<point x="709" y="366" type="line"/>
			<point x="746" y="252" type="line"/>
			<point x="756" y="252" type="line"/>
			<point x="793" y="366" type="line"/>
			<point x="976.2076416016" y="850.4164428711" type="line"/>
			<point x="1155.3792114258" y="1356.8397216797" type="line"/>
			<point x="913.6055908203" y="1391.8397216797" type="line"/>
			<point x="911.6055908203" y="1500" type="line"/>
			<point x="1540.6911621094" y="1500" type="line"/>
			<point x="1541.6911621094" y="1391.8397216797" type="line"/>
			<point x="1307.3023681641" y="1364.8397216797" type="line"/>
			<point x="1091.6384277344" y="797.7025146484" type="line"/>
			<point x="804.9248657227" y="11.7700195312" type="line"/>
			<point x="612.13671875" y="11.7700195312" type="line"/>
			<point x="378.9514160156" y="712.2445678711" type="line"/>
			<point x="138.99609375" y="1362.8397216797" type="line"/>
		</contour>
	</outline>
	<anchor name="bottom" x="723" y="0"/>
	<anchor name="top" x="733" y="1500"/>
</glyph>
<glyph name="W" format="2">
	<unicode hex="0057"/>
	<advance width="2070"/>
	<outline>
		<contour>
			<point x="585.9830322266" y="11.7700195312" type="line"/>
			<point x="366.4676513672" y="738.3762817383" type="line"/>
			<point x="164.99609375" y="1364.8397216797" type="line"/>
			<point x="-29.8540039062" y="1393.8397216797" type="line"/>
			<point x="-29.8540039062" y="1500" type="line"/>
			<point x="537.1528320312" y="1500" type="line"/>
			<point x="537.1528320312" y="1393.8397216797" type="line"/>
			<point x="351.2253417969" y="1366.8397216797" type="line"/>
			<point x="545.3439331055" y="744.0999145508" type="line"/>
			<point x="675" y="370" type="line"/>
			<point x="710" y="256" type="line"/>
			<point x="720" y="256" type="line"/>
			<point x="759" y="370" type="line"/>
			<point x="868" y="674" type="line"/>
			<point x="996" y="1038" type="line"/>
			<point x="834.556640625" y="1361.3597412109" type="line"/>
			<point x="662.7065429688" y="1390.3597412109" type="line"/>
			<point x="662.7065429688" y="1500" type="line"/>
			<point x="1228.3728027344" y="1500" type="line"/>
			<point x="1228.3728027344" y="1390.3597412109" type="line"/>
			<point x="1035.5227050781" y="1364.3597412109" type="line"/>
			<point x="1188.2355957031" y="877.561340332" type="line"/>
			<point x="1397" y="370" type="line"/>
			<point x="1430" y="256" type="line"/>
			<point x="1440" y="256" type="line"/>
			<point x="1476" y="370" type="line"/>
			<point x="1629" y="803" type="line"/>
			<point x="1780.6502075195" y="1354.8397216797" type="line"/>
			<point x="1522.337890625" y="1393.8397216797" type="line"/>
			<point x="1522.337890625" y="1500" type="line"/>
			<point x="2165.6470336914" y="1500" type="line"/>
			<point x="2165.6470336914" y="1393.8397216797" type="line"/>
			<point x="1926.719543457" y="1363.8397216797" type="line"/>
			<point x="1747" y="760" type="line"/>
			<point x="1448.5155639648" y="11.7700195312" type="line"/>
			<point x="1252.6617431641" y="11.7700195312" type="line"/>
			<point x="1096" y="750" type="line"/>
			<point x="1060" y="866" type="line"/>
			<point x="1050" y="866" type="line"/>
			<point x="1014" y="750" type="line"/>
			<point x="768.0982055664" y="11.7700195312" type="line"/>
		</contour>
	</outline>
	<anchor name="bottom" x="1051" y="0"/>
	<anchor name="top" x="1051" y="1500"/>
</glyph>
<glyph name="X" format="2">
	<unicode hex="0058"/>
	<advance width="1478"/>
	<outline>
		<contour>
			<point x="-73.1323242188" y="0" type="line"/>
			<point x="-73.1323242188" y="99.0002441406" type="line"/>
			<point x="198.7177734375" y="130.0002441406" type="line"/>
			<point x="575" y="786" type="line"/>
			<point x="269.170715332" y="1357.8397216797" type="line"/>
			<point x="25.8593139648" y="1391.8397216797" type="line"/>
			<point x="25.8593139648" y="1500" type="line"/>
			<point x="680.0548095703" y="1500" type="line"/>
			<point x="680.0548095703" y="1391.8397216797" type="line"/>
			<point x="459.4353637695" y="1358.8397216797" type="line"/>
			<point x="601" y="1043" type="line"/>
			<point x="673" y="929" type="line"/>
			<point x="683" y="929" type="line"/>
			<point x="751" y="1043" type="line"/>
			<point x="1056.7176513672" y="1355.8397216797" type="line"/>
			<point x="822.4827270508" y="1391.8397216797" type="line"/>
			<point x="822.4827270508" y="1500" type="line"/>
			<point x="1514.1064453125" y="1500" type="line"/>
			<point x="1514.1064453125" y="1391.8397216797" type="line"/>
			<point x="1247.7176513672" y="1359.8397216797" type="line"/>
			<point x="753" y="818" type="line"/>
			<point x="1316.5666503906" y="133.0002441406" type="line"/>
			<point x="1551.4167480469" y="99.0002441406" type="line"/>
			<point x="1551.4167480469" y="0" type="line"/>
			<point x="862.5189819336" y="0" type="line"/>
			<point x="862.5189819336" y="99.0002441406" type="line"/>
			<point x="1115.1384277344" y="133.0002441406" type="line"/>
			<point x="727" y="562" type="line"/>
			<point x="655" y="676" type="line"/>
			<point x="645" y="676" type="line"/>
			<point x="577" y="562" type="line"/>
			<point x="395.7177734375" y="138.0002441406" type="line"/>
			<point x="652.9526977539" y="99.0002441406" type="line"/>
			<point x="652.9526977539" y="0" type="line"/>
		</contour>
	</outline>
	<anchor name="bottom" x="661" y="0"/>
	<anchor name="top" x="673" y="1500"/>
	<anchor name="cy_descender" x="1386" y="100"/>
	<anchor name="center" x="663" y="811"/>
</glyph>
<glyph name="Y" format="2">
	<unicode hex="0059"/>
	<advance width="1331"/>
	<outline>
		<contour>
			<point x="330.1124267578" y="0" type="line"/>
			<point x="330.1124267578" y="101.0002441406" type="line"/>
			<point x="548.9637451172" y="133.0002441406" type="line"/>
			<point x="550.9637451172" y="675.1513671875" type="line"/>
			<point x="376.9400634766" y="969.4591674805" type="line"/>
			<point x="107.99609375" y="1357.8397216797" type="line"/>
			<point x="-62.623046875" y="1391.8397216797" type="line"/>
			<point x="-62.623046875" y="1500" type="line"/>
			<point x="481.9670410156" y="1500" type="line"/>
			<point x="481.9670410156" y="1391.8397216797" type="line"/>
			<point x="295.8095092773" y="1363.8397216797" type="line"/>
			<point x="558.4025878906" y="944.9038696289" type="line"/>
			<point x="659" y="783" type="line"/>
			<point x="669" y="783" type="line"/>
			<point x="858.3634033203" y="1099.9337768555" type="line"/>
			<point x="1012.397277832" y="1358.8397216797" type="line"/>
			<point x="809.6236572266" y="1391.8397216797" type="line"/>
			<point x="809.6236572266" y="1500" type="line"/>
			<point x="1382.1533813477" y="1500" type="line"/>
			<point x="1382.1533813477" y="1391.8397216797" type="line"/>
			<point x="1165.3032836914" y="1357.8397216797" type="line"/>
			<point x="959.9450683594" y="1026.1317749023" type="line"/>
			<point x="722.7840576172" y="631.9776611328" type="line"/>
			<point x="722.2840576172" y="133.0002441406" type="line"/>
			<point x="938.8276367188" y="101.0002441406" type="line"/>
			<point x="938.8276367188" y="0" type="line"/>
		</contour>
	</outline>
	<anchor name="bottom" x="636" y="0"/>
	<anchor name="top" x="640" y="1500"/>
	<anchor name="tonos" x="-100" y="1500"/>
	<anchor name="center" x="636" y="582"/>
</glyph>
<glyph name="a" format="2">
	<unicode hex="0061"/>
	<advance width="1004"/>
	<outline>
		<contour>
			<point x="71.572265625" y="252.111328125" type="qcurve" smooth="yes"/>
			<point x="71.572265625" y="418.6669921875"/>
			<point x="416" y="583"/>
			<point x="780" y="630" type="qcurve"/>
			<point x="757.744934082" y="546.596862793" type="line"/>
			<point x="463.954284668" y="512.7515258789"/>
			<point x="268.1859130859" y="375.600769043"/>
			<point x="268.1859130859" y="280.600402832" type="qcurve" smooth="yes"/>
			<point x="268.1859130859" y="202.430847168"/>
			<point x="338.8294067383" y="91.8818359375"/>
			<point x="437.4905395508" y="91.8818359375" type="qcurve" smooth="yes"/>
			<point x="494.4407348633" y="91.8818359375"/>
			<point x="649.3774414062" y="173.3688964844"/>
			<point x="668.8603515625" y="192.7142333984" type="qcurve"/>
			<point x="672.8603515625" y="573.7647094727" type="line" smooth="yes"/>
			<point x="674.8603515625" y="796.7937011719"/>
			<point x="592.3460693359" y="926.1324462891"/>
			<point x="462.6411132812" y="926.1324462891" type="qcurve" smooth="yes"/>
			<point x="368.5012207031" y="926.1324462891"/>
			<point x="295.2487182617" y="881.4722900391"/>
			<point x="311.4212646484" y="886.6485595703" type="qcurve"/>
			<point x="332.7799682617" y="867.083984375"/>
			<point x="375.9383544922" y="822.1021118164"/>
			<point x="377.7047729492" y="772.8713989258" type="qcurve" smooth="yes"/>
			<point x="383.2015380859" y="728.1407470703"/>
			<point x="298.3112792969" y="651.7562255859"/>
			<point x="251.8883666992" y="651.7562255859" type="qcurve" smooth="yes"/>
			<point x="213.9524536133" y="651.7562255859"/>
			<point x="141.4362792969" y="741.3330688477"/>
			<point x="141.4362792969" y="804.717590332" type="qcurve" smooth="yes"/>
			<point x="141.4362792969" y="896.9557495117"/>
			<point x="298.3001098633" y="1025.7169189453"/>
			<point x="448.3687744141" y="1025.7169189453" type="qcurve" smooth="yes"/>
			<point x="637.2937011719" y="1025.7169189453"/>
			<point x="822.3583374023" y="859.0471801758"/>
			<point x="824.3583374023" y="694.8782348633" type="qcurve" smooth="yes"/>
			<point x="830.3583374023" y="116.0009765625" type="line"/>
			<point x="972.3593139648" y="81.0009765625" type="line"/>
			<point x="972.3593139648" y="0" type="line"/>
			<point x="726.744934082" y="0" type="line"/>
			<point x="680.744934082" y="28" type="line"/>
			<point x="669.744934082" y="95.0003051758" type="line"/>
			<point x="644.3778076172" y="48.6540527344"/>
			<point x="458.3983154297" y="-14.1149902344"/>
			<point x="312.3418579102" y="-14.1149902344" type="qcurve" smooth="yes"/>
			<point x="273.2746582031" y="-14.1149902344"/>
			<point x="71.572265625" y="114.0416870117"/>
		</contour>
	</outline>
	<anchor name="bottom" x="548" y="0"/>
	<anchor name="ogonek" x="878" y="0"/>
	<anchor name="top" x="514" y="1000"/>
</glyph>
<glyph name="c" format="2">
	<unicode hex="0063"/>
	<advance width="1058"/>
	<outline>
		<contour>
			<point x="64.9995117188" y="475.5444335938" type="qcurve" smooth="yes"/>
			<point x="64.9995117188" y="732.2086791992"/>
			<point x="347.309387207" y="1031.4708251953"/>
			<point x="585.8861694336" y="1031.4708251953" type="qcurve" smooth="yes"/>
			<point x="763.7738037109" y="1031.4708251953"/>
			<point x="844.0392456055" y="969.8508300781"/>
			<point x="899.3157348633" y="922.7054443359" type="qcurve"/>
			<point x="932.1514282227" y="989.8256835938" type="line"/>
			<point x="1014.8397827148" y="989.8256835938" type="line"/>
			<point x="1024.8397827148" y="671.3541259766" type="line"/>
			<point x="929.8772583008" y="671.3541259766" type="line"/>
			<point x="887.8772583008" y="757.0018310547" type="line" smooth="yes"/>
			<point x="865.3583374023" y="819.8736572266"/>
			<point x="671.8466186523" y="908.8618164062"/>
			<point x="521.1842651367" y="908.8618164062" type="qcurve" smooth="yes"/>
			<point x="352.1842651367" y="908.8618164062"/>
			<point x="239.1897583008" y="681.3919067383"/>
			<point x="239.1897583008" y="505.1970825195" type="qcurve" smooth="yes"/>
			<point x="239.1897583008" y="314.8450317383"/>
			<point x="364.4497680664" y="118.2919921875"/>
			<point x="540.4497680664" y="118.2919921875" type="qcurve" smooth="yes"/>
			<point x="678.383605957" y="118.2919921875"/>
			<point x="907.3439331055" y="219.7397460938"/>
			<point x="980.520690918" y="282" type="qcurve"/>
			<point x="1041.7249145508" y="200.2789306641" type="line"/>
			<point x="952.6764526367" y="103.2229003906"/>
			<point x="695.4649658203" y="-30.0766601562"/>
			<point x="535.746887207" y="-30.0766601562" type="qcurve" smooth="yes"/>
			<point x="321.0999755859" y="-30.0766601562"/>
			<point x="64.9995117188" y="245.6669311523"/>
		</contour>
	</outline>
	<anchor name="bottom" x="563" y="0"/>
	<anchor name="top" x="534" y="1000"/>
</glyph>
<glyph name="d" format="2">
	<unicode hex="0064"/>
	<advance width="1189"/>
	<outline>
		<contour>
			<point x="62.0883789062" y="475.0009155273" type="qcurve" smooth="yes"/>
			<point x="62.0883789062" y="742.9216918945"/>
			<point x="357.6272583008" y="1016.5015869141"/>
			<point x="566.5530395508" y="1016.5015869141" type="qcurve" smooth="yes"/>
			<point x="659.3159790039" y="1016.5015869141"/>
			<point x="832.4607543945" y="964.4257202148"/>
			<point x="838.8667602539" y="941.0017700195" type="qcurve"/>
			<point x="834.2955932617" y="1400.2000732422" type="line"/>
			<point x="675.294128418" y="1439.2000732422" type="line"/>
			<point x="675.294128418" y="1522.0012207031" type="line"/>
			<point x="939.9476928711" y="1530.0778808594" type="line"/>
			<point x="980.1937866211" y="1529.0778808594" type="line"/>
			<point x="1004.8090209961" y="1480.0778808594" type="line"/>
			<point x="999.8090209961" y="500.1295166016" type="line"/>
			<point x="1003.6859741211" y="116.0009765625" type="line"/>
			<point x="1152.6869506836" y="81.0009765625" type="line"/>
			<point x="1152.6869506836" y="0" type="line"/>
			<point x="871.6937866211" y="0" type="line"/>
			<point x="857.145690918" y="17" type="line"/>
			<point x="843.0494995117" y="110.8002929688" type="line"/>
			<point x="810.7593994141" y="62.6841430664"/>
			<point x="619.3469848633" y="-18.4881591797"/>
			<point x="496.1620483398" y="-18.4881591797" type="qcurve" smooth="yes"/>
			<point x="319.2581787109" y="-18.4881591797"/>
			<point x="62.0883789062" y="249.2468261719"/>
		</contour>
		<contour>
			<point x="229.8170776367" y="475.8009643555" type="qcurve" smooth="yes"/>
			<point x="229.8170776367" y="325.3517456055"/>
			<point x="396.5257568359" y="83.0888671875"/>
			<point x="534.5257568359" y="82.6629638672" type="qcurve" smooth="yes"/>
			<point x="619.1695556641" y="82.2370605469"/>
			<point x="823.2209472656" y="189.7319335938"/>
			<point x="865.8419799805" y="259.0664672852" type="qcurve"/>
			<point x="868.8419799805" y="526.2009887695" type="line"/>
			<point x="864.8419799805" y="791.8552856445" type="line"/>
			<point x="842.9248046875" y="839.6076660156"/>
			<point x="679.4021606445" y="926.18359375"/>
			<point x="556.1985473633" y="926.18359375" type="qcurve" smooth="yes"/>
			<point x="411.1985473633" y="926.18359375"/>
			<point x="229.8170776367" y="630.3283081055"/>
		</contour>
	</outline>
	<anchor name="bottom" x="604" y="0"/>
	<anchor name="center" x="876" y="1202"/>
	<anchor name="top" x="604" y="1534"/>
	<anchor name="topright" x="961" y="1000"/>
	<anchor name="liga" x="1207" y="0"/>
</glyph>
<glyph name="e" format="2">
	<unicode hex="0065"/>
	<advance width="1022"/>
	<outline>
		<contour>
			<point x="76.9772949219" y="501.30859375" type="qcurve" smooth="yes"/>
			<point x="76.9772949219" y="754.3164672852"/>
			<point x="359.3565673828" y="1030.8746337891"/>
			<point x="564.4642333984" y="1030.8746337891" type="qcurve" smooth="yes"/>
			<point x="742.2891235352" y="1030.8746337891"/>
			<point x="1028.0397338867" y="780.8436279297"/>
			<point x="1033.576171875" y="577.6049194336" type="qcurve"/>
			<point x="1034.3069458008" y="485.3534545898" type="line"/>
			<point x="166" y="528" type="line"/>
			<point x="166" y="624" type="line"/>
			<point x="844.5007324219" y="598.592590332" type="line"/>
			<point x="844.3776855469" y="714.6778564453"/>
			<point x="669.9589233398" y="918.5806884766"/>
			<point x="537.9589233398" y="918.5806884766" type="qcurve" smooth="yes"/>
			<point x="409.9589233398" y="918.5806884766"/>
			<point x="246.9724731445" y="722.6072998047"/>
			<point x="247.3983764648" y="521.0008544922" type="qcurve" smooth="yes"/>
			<point x="247.8242797852" y="310.0609130859"/>
			<point x="370.4778442383" y="115.0291748047"/>
			<point x="553.4778442383" y="115.0291748047" type="qcurve" smooth="yes"/>
			<point x="678.7484130859" y="115.0291748047"/>
			<point x="903.4454956055" y="216.4572753906"/>
			<point x="961.5139770508" y="294.5367431641" type="qcurve"/>
			<point x="1018.0970458984" y="217.8156738281" type="line"/>
			<point x="996.9671630859" y="129.6589355469"/>
			<point x="701.5718383789" y="-31.4689941406"/>
			<point x="569.1209106445" y="-31.4689941406" type="qcurve" smooth="yes"/>
			<point x="383.2258300781" y="-31.4689941406"/>
			<point x="76.9772949219" y="270.8391723633"/>
		</contour>
	</outline>
	<anchor name="bottom" x="578" y="0"/>
	<anchor name="ogonek" x="744" y="0"/>
	<anchor name="top" x="539" y="1000"/>
</glyph>
<glyph name="g" format="2">
	<unicode hex="0067"/>
	<advance width="1091"/>
	<outline>
		<contour>
			<point x="117.6931762695" y="-224.9479370117" type="qcurve" smooth="yes"/>
			<point x="117.6931762695" y="-120.7547607422"/>
			<point x="126" y="-51"/>
			<point x="233" y="2" type="qcurve"/>
			<point x="340" y="-21" type="line"/>
			<point x="240" y="-84"/>
			<point x="227.4614868164" y="-165.4885864258"/>
			<point x="227.4614868164" y="-232.7681884766" type="qcurve" smooth="yes"/>
			<point x="227.4614868164" y="-330.657409668"/>
			<point x="392.682434082" y="-399.6955566406"/>
			<point x="592.4401855469" y="-399.6955566406" type="qcurve" smooth="yes"/>
			<point x="776.6079711914" y="-399.6955566406"/>
			<point x="971.2037963867" y="-321.7098388672"/>
			<point x="971.2037963867" y="-219.8546142578" type="qcurve" smooth="yes"/>
			<point x="971.2037963867" y="-141.3931884766"/>
			<point x="830.0548095703" y="-50.3656616211"/>
			<point x="526.4403076172" y="-18.8083496094" type="qcurve" smooth="yes"/>
			<point x="351.6494750977" y="9.7297973633"/>
			<point x="130.9004516602" y="51.3440551758"/>
			<point x="130.9004516602" y="152.8739013672" type="qcurve" smooth="yes"/>
			<point x="130.9004516602" y="228.7314453125"/>
			<point x="267.2409667969" y="338.0609130859"/>
			<point x="370.1098632812" y="357.892578125" type="qcurve"/>
			<point x="419.5003662109" y="313.1197509766" type="line"/>
			<point x="337.6469116211" y="282.6403198242"/>
			<point x="245.9768676758" y="228.5440673828"/>
			<point x="245.9768676758" y="183.6694335938" type="qcurve" smooth="yes"/>
			<point x="245.9768676758" y="156.1430053711"/>
			<point x="379.4421386719" y="143.407409668"/>
			<point x="619.0443115234" y="115.6524658203" type="qcurve" smooth="yes"/>
			<point x="878.3324584961" y="81.3411865234"/>
			<point x="1106.3560180664" y="-16.3377685547"/>
			<point x="1105.6252441406" y="-153.6594238281" type="qcurve" smooth="yes"/>
			<point x="1104.8944702148" y="-311.7159423828"/>
			<point x="820.2509765625" y="-483.3232421875"/>
			<point x="537.9231567383" y="-483.3232421875" type="qcurve" smooth="yes"/>
			<point x="371.6171264648" y="-483.3232421875"/>
			<point x="117.6931762695" y="-353.2491455078"/>
		</contour>
		<contour>
			<point x="157.0004882812" y="633.2555541992" type="qcurve" smooth="yes"/>
			<point x="157.0004882812" y="820.7070922852"/>
			<point x="376.5223999023" y="1016.3052978516"/>
			<point x="562.3961791992" y="1016.3052978516" type="qcurve" smooth="yes"/>
			<point x="764.9315795898" y="1016.3052978516"/>
			<point x="990.5668945312" y="832.7070922852"/>
			<point x="991.5668945312" y="648.4555664062" type="qcurve" smooth="yes"/>
			<point x="993.5668945312" y="463.0040283203"/>
			<point x="759.7199707031" y="224.3297119141"/>
			<point x="570.7077636719" y="224.3297119141" type="qcurve" smooth="yes"/>
			<point x="375.2742919922" y="224.3297119141"/>
			<point x="157.0004882812" y="445.0040283203"/>
		</contour>
		<contour>
			<point x="329.8067016602" y="647.1309204102" type="qcurve" smooth="yes"/>
			<point x="328.8067016602" y="517.1519165039"/>
			<point x="458.9231567383" y="323.7905273438"/>
			<point x="585.9231567383" y="323.7905273438" type="qcurve" smooth="yes"/>
			<point x="712.9231567383" y="323.7905273438"/>
			<point x="826.2991333008" y="529.2766723633"/>
			<point x="826.2991333008" y="652.2556762695" type="qcurve" smooth="yes"/>
			<point x="826.2991333008" y="775.2346801758"/>
			<point x="688.4846801758" y="919.7336425781"/>
			<point x="568.4846801758" y="919.7336425781" type="qcurve" smooth="yes"/>
			<point x="448.4846801758" y="919.7336425781"/>
			<point x="330.8067016602" y="777.1099243164"/>
		</contour>
		<contour>
			<point x="540" y="925" type="line"/>
			<point x="540" y="1000" type="line"/>
			<point x="1164.872253418" y="981.6018066406" type="line"/>
			<point x="1164.872253418" y="850.9554443359" type="line"/>
		</contour>
	</outline>
	<anchor name="bottom" x="524" y="-416"/>
	<anchor name="top" x="484" y="1000"/>
</glyph>
<glyph name="h" format="2">
	<unicode hex="0068"/>
	<advance width="1236"/>
	<outline>
		<contour>
			<point x="78.2114257812" y="0" type="line"/>
			<point x="78.2114257812" y="81.0009765625" type="line"/>
			<point x="226.7724609375" y="116.0009765625" type="line"/>
			<point x="228.7724609375" y="513.801940918" type="line"/>
			<point x="218.7724609375" y="1398.2000732422" type="line"/>
			<point x="77.771484375" y="1439.2000732422" type="line"/>
			<point x="77.771484375" y="1522.0012207031" type="line"/>
			<point x="303.7705078125" y="1530.0778808594" type="line"/>
			<point x="338.7705078125" y="1529.0778808594" type="line"/>
			<point x="381.7705078125" y="1481.0778808594" type="line"/>
			<point x="375.7705078125" y="839.4315185547" type="line"/>
			<point x="421.1581420898" y="904.3685913086"/>
			<point x="605.5152587891" y="1016.9014892578"/>
			<point x="738.7337036133" y="1016.9014892578" type="qcurve" smooth="yes"/>
			<point x="891.4207763672" y="1016.9014892578"/>
			<point x="1062.9846191406" y="854.7182006836"/>
			<point x="1062.9846191406" y="742.8456420898" type="qcurve" smooth="yes"/>
			<point x="1062.9846191406" y="661.2327880859"/>
			<point x="1085.4438476562" y="491.6038818359"/>
			<point x="1085.4438476562" y="491.6038818359" type="qcurve"/>
			<point x="1067.1286621094" y="116.0009765625" type="line"/>
			<point x="1213.2092285156" y="81.0009765625" type="line"/>
			<point x="1213.2092285156" y="0" type="line"/>
			<point x="756.3303222656" y="0" type="line"/>
			<point x="756.3303222656" y="81.0009765625" type="line"/>
			<point x="888.1306152344" y="116.0009765625" type="line"/>
			<point x="892.6052246094" y="476.5054321289" type="line"/>
			<point x="892.6052246094" y="676.8293457031" type="line" smooth="yes"/>
			<point x="892.6052246094" y="763.2249145508"/>
			<point x="787.6353759766" y="879.9497070312"/>
			<point x="700.5111083984" y="879.9497070312" type="qcurve" smooth="yes"/>
			<point x="602.9443359375" y="879.9497070312"/>
			<point x="433.9560546875" y="795.3609619141"/>
			<point x="389.5743408203" y="733.0021972656" type="qcurve"/>
			<point x="391.7705078125" y="461.6019287109" type="line"/>
			<point x="396.7705078125" y="116.0009765625" type="line"/>
			<point x="535.5715332031" y="81.0009765625" type="line"/>
			<point x="535.5715332031" y="0" type="line"/>
		</contour>
	</outline>
	<anchor name="bottom" x="629" y="0"/>
	<anchor name="center" x="347" y="1202"/>
	<anchor name="top" x="304" y="1534"/>
</glyph>
<glyph name="k" format="2">
	<unicode hex="006B"/>
	<advance width="1000"/>
	<outline>
		<contour>
			<point x="77.0285644531" y="0" type="line"/>
			<point x="77.0285644531" y="81.0009765625" type="line"/>
			<point x="227.0295410156" y="116.0009765625" type="line"/>
			<point x="229.0295410156" y="482" type="line"/>
			<point x="219.0295410156" y="1399.2000732422" type="line"/>
			<point x="70.8288574219" y="1439.2000732422" type="line"/>
			<point x="70.8288574219" y="1522.0012207031" type="line"/>
			<point x="303.6429443359" y="1530.0778808594" type="line"/>
			<point x="328.6429443359" y="1529.0778808594" type="line"/>
			<point x="378.6429443359" y="1481.0778808594" type="line"/>
			<point x="385.6429443359" y="536" type="line"/>
			<point x="392.6429443359" y="116.0009765625" type="line"/>
			<point x="530.6439208984" y="81.0009765625" type="line"/>
			<point x="530.6439208984" y="0" type="line"/>
		</contour>
		<contour>
			<point x="303" y="376" type="line"/>
			<point x="303" y="490" type="line"/>
			<point x="736.7066650391" y="888.6007080078" type="line"/>
			<point x="664.7056884766" y="918.6007080078" type="line"/>
			<point x="664.7056884766" y="999.6018066406" type="line"/>
			<point x="978.2045898438" y="999.6018066406" type="line"/>
			<point x="978.2045898438" y="918.6007080078" type="line"/>
			<point x="832.2036132812" y="888.6007080078" type="line"/>
		</contour>
		<contour>
			<point x="479.8120727539" y="577.0766601562" type="line"/>
			<point x="575.0064697266" y="663.1564941406" type="line"/>
			<point x="903.4250488281" y="118.0009765625" type="line"/>
			<point x="1013.4260253906" y="81.0009765625" type="line"/>
			<point x="1013.4260253906" y="0" type="line"/>
			<point x="710.7850952148" y="0" type="line"/>
			<point x="704.4345703125" y="65.5081787109" type="line"/>
			<point x="726.5868530273" y="109.0377807617" type="line"/>
		</contour>
	</outline>
	<anchor name="bottom" x="608" y="0"/>
	<anchor name="top" x="578" y="1534"/>
</glyph>
<glyph name="l" format="2">
	<unicode hex="006C"/>
	<advance width="585"/>
	<outline>
		<contour>
			<point x="78" y="0" type="line"/>
			<point x="78" y="81.0009765625" type="line"/>
			<point x="227.0009765625" y="116.0009765625" type="line"/>
			<point x="229.0009765625" y="527" type="line"/>
			<point x="221.0009765625" y="1397.2000732422" type="line"/>
			<point x="79" y="1437.2000732422" type="line"/>
			<point x="79" y="1522.0012207031" type="line"/>
			<point x="297.9990234375" y="1530.0778808594" type="line"/>
			<point x="347.9990234375" y="1530.0778808594" type="line"/>
			<point x="396.9990234375" y="1483.0778808594" type="line"/>
			<point x="392.9990234375" y="527" type="line"/>
			<point x="396.9990234375" y="116.0009765625" type="line"/>
			<point x="537" y="81.0009765625" type="line"/>
			<point x="537" y="0" type="line"/>
		</contour>
	</outline>
	<anchor name="bottom" x="316" y="0"/>
	<anchor name="center" x="316" y="750"/>
	<anchor name="top" x="316" y="1534"/>
	<anchor name="topright" x="367" y="1000"/>
	<anchor name="centerright" x="746" y="680"/>
	<anchor name="yu_dash" x="321" y="500"/>
	<anchor name="liga" x="632" y="0"/>
</glyph>
<glyph name="n" format="2">
	<unicode hex="006E"/>
	<advance width="1230"/>
	<outline>
		<contour>
			<point x="77.0285644531" y="0" type="line"/>
			<point x="77.0285644531" y="81.0009765625" type="line"/>
			<point x="225.0295410156" y="116.0009765625" type="line"/>
			<point x="228.0295410156" y="535.801940918" type="line"/>
			<point x="223.0295410156" y="855.8006591797" type="line"/>
			<point x="67.0285644531" y="890.8006591797" type="line"/>
			<point x="67.0285644531" y="974.6018066406" type="line"/>
			<point x="291.8737792969" y="1010.6784667969" type="line"/>
			<point x="379.8737792969" y="945.6784667969" type="line"/>
			<point x="384.3353271484" y="823.4857177734" type="line"/>
			<point x="431.3001708984" y="899.4527587891"/>
			<point x="623.5863765594" y="1017.5053100586"/>
			<point x="767.5172847625" y="1017.5053100586" type="qcurve" smooth="yes"/>
			<point x="918.0212067635" y="1017.5053100586"/>
			<point x="1057.7756347656" y="851.044128418"/>
			<point x="1057.7756347656" y="702.9902954102" type="qcurve" smooth="yes"/>
			<point x="1057.7756347656" y="649.3364257812"/>
			<point x="1058.0129394531" y="579.3054199219"/>
			<point x="1059.0129394531" y="551.5054321289" type="qcurve" smooth="yes"/>
			<point x="1059.0129394531" y="115.0009765625" type="line"/>
			<point x="1198.0139160156" y="81.0009765625" type="line"/>
			<point x="1198.0139160156" y="0" type="line"/>
			<point x="768.4655289188" y="0" type="line"/>
			<point x="768.4655289188" y="81.0009765625" type="line"/>
			<point x="881.4665054813" y="116.0009765625" type="line"/>
			<point x="887.0148925781" y="476.5054321289" type="line"/>
			<point x="887.0148925781" y="661.6920166016" type="line" smooth="yes"/>
			<point x="887.0148925781" y="784.6049804688"/>
			<point x="793.5574360509" y="864.5128173828"/>
			<point x="680.9688681325" y="864.5128173828" type="qcurve" smooth="yes"/>
			<point x="571.7198387884" y="864.5128173828"/>
			<point x="406.5424804688" y="765.8828125"/>
			<point x="391.0275878906" y="723.7877197266" type="qcurve"/>
			<point x="391.0275878906" y="483.801940918" type="line"/>
			<point x="395.0275878906" y="116.0009765625" type="line"/>
			<point x="539.0285644531" y="81.0009765625" type="line"/>
			<point x="539.0285644531" y="0" type="line"/>
		</contour>
	</outline>
	<anchor name="bottom" x="632" y="0"/>
	<anchor name="top" x="632" y="1000"/>
	<anchor name="liga" x="1264" y="0"/>
</glyph>
<glyph name="o" format="2">
	<unicode hex="006F"/>
	<advance width="1148"/>
	<outline>
		<contour>
			<point x="63.9995117188" y="500.8009643555" type="qcurve" smooth="yes"/>
			<point x="63.9995117188" y="745.3048095703"/>
			<point x="356.3477783203" y="1026.5378417969"/>
			<point x="568.7963256836" y="1026.5378417969" type="qcurve" smooth="yes"/>
			<point x="783.8160400391" y="1026.5378417969"/>
			<point x="1083.9777832031" y="752.7048339844"/>
			<point x="1083.9777832031" y="506.8009643555" type="qcurve" smooth="yes"/>
			<point x="1083.9777832031" y="259.3239135742"/>
			<point x="793.0852661133" y="-27.0187988281"/>
			<point x="576.7963256836" y="-27.0187988281" type="qcurve" smooth="yes"/>
			<point x="360.4477539062" y="-27.0187988281"/>
			<point x="63.9995117188" y="241.9238891602"/>
		</contour>
		<contour>
			<point x="234.8051147461" y="514.8009643555" type="qcurve" smooth="yes"/>
			<point x="234.8051147461" y="343.6661987305"/>
			<point x="415.686706543" y="74.8492431641"/>
			<point x="567.686706543" y="74.8492431641" type="qcurve" smooth="yes"/>
			<point x="729.686706543" y="74.8492431641"/>
			<point x="908.7875366211" y="336.1168823242"/>
			<point x="908.7875366211" y="517.8009643555" type="qcurve" smooth="yes"/>
			<point x="908.7875366211" y="664.2496948242"/>
			<point x="727.686706543" y="910.1143798828"/>
			<point x="570.686706543" y="910.1143798828" type="qcurve" smooth="yes"/>
			<point x="406.686706543" y="910.1143798828"/>
			<point x="234.8051147461" y="694.1715698242"/>
		</contour>
	</outline>
	<anchor name="bottom" x="584" y="0"/>
	<anchor name="center" x="584" y="500"/>
	<anchor name="ogonek" x="747" y="0"/>
	<anchor name="top" x="584" y="1000"/>
	<anchor name="topright" x="751" y="1000"/>
	<anchor name="GRKtop" x="584" y="1000"/>
	<anchor name="yu_dash" x="150" y="500"/>
</glyph>
<glyph name="r" format="2">
	<unicode hex="0072"/>
	<advance width="893"/>
	<outline>
		<contour>
			<point x="80" y="0" type="line"/>
			<point x="80" y="81.0009765625" type="line"/>
			<point x="225.0009765625" y="116.0009765625" type="line"/>
			<point x="227.0009765625" y="491.6018066406" type="line"/>
			<point x="226.0009765625" y="855.8006591797" type="line"/>
			<point x="67" y="890.8006591797" type="line"/>
			<point x="67" y="974.6018066406" type="line"/>
			<point x="344.3452758789" y="1010.6784667969" type="line"/>
			<point x="399.3452758789" y="955.6784667969" type="line"/>
			<point x="395.0760498047" y="800.3602294922" type="line"/>
			<point x="428.8972167969" y="860.6018066406"/>
			<point x="706.6376342773" y="1015.674621582"/>
			<point x="843.3901367188" y="1011.8746337891" type="qcurve" smooth="yes"/>
			<point x="890.7174072266" y="1011.8746337891" type="line"/>
			<point x="890.7174072266" y="672.1049194336" type="line"/>
			<point x="781.7178955078" y="672.1049194336" type="line"/>
			<point x="585.5697021484" y="809.8023681641" type="line"/>
			<point x="558.208190918" y="805.5433349609"/>
			<point x="424.164855957" y="736.0666503906"/>
			<point x="386.6143798828" y="683.8446044922" type="qcurve"/>
			<point x="384.6143798828" y="491.6018066406" type="line"/>
			<point x="386.6143798828" y="116.0009765625" type="line"/>
			<point x="554.6153564453" y="81.0009765625" type="line"/>
			<point x="554.6153564453" y="0" type="line"/>
		</contour>
	</outline>
	<anchor name="bottom" x="432" y="0"/>
	<anchor name="top" x="486" y="1000"/>
</glyph>
<glyph name="t" format="2">
	<unicode hex="0074"/>
	<advance width="630"/>
	<outline>
		<contour>
			<point x="31.9716796875" y="864.0328369141" type="line"/>
			<point x="21.9716796875" y="963.8834228516" type="line"/>
			<point x="195.9716796875" y="991.8834228516"/>
			<point x="322.2590332031" y="1168.0015869141"/>
			<point x="382.2590332031" y="1343" type="qcurve"/>
			<point x="331.6036987305" y="1343" type="line"/>
			<point x="377.6036987305" y="1293" type="line"/>
			<point x="372.6036987305" y="976.6418457031" type="line"/>
			<point x="620.9186401367" y="976.6418457031" type="line"/>
			<point x="620.9186401367" y="855.7364501953" type="line"/>
			<point x="370.6036987305" y="855.7364501953" type="line"/>
			<point x="368.6036987305" y="526.4014892578" type="line"/>
			<point x="376.6036987305" y="290.0909423828" type="line" smooth="yes"/>
			<point x="378.6036987305" y="225.0909423828"/>
			<point x="441.315612793" y="162.0909423828"/>
			<point x="498.4513549805" y="162.0909423828" type="qcurve" smooth="yes"/>
			<point x="614.2409057617" y="162.0909423828" type="line"/>
			<point x="614.2409057617" y="60" type="line"/>
			<point x="360.4408569336" y="-10.8804931641" type="line"/>
			<point x="276.6868286133" y="-10.8804931641"/>
			<point x="193.3364257812" y="130.3887329102"/>
			<point x="197.3364257812" y="263.1195068359" type="qcurve" smooth="yes"/>
			<point x="204.3364257812" y="526.4014892578" type="line"/>
			<point x="202.3364257812" y="852.0328369141" type="line"/>
		</contour>
	</outline>
	<anchor name="bottom" x="322" y="0"/>
	<anchor name="center" x="312" y="622"/>
	<anchor name="top" x="322" y="1179"/>
	<anchor name="topright" x="540" y="1000"/>
</glyph>
<glyph name="u" format="2">
	<unicode hex="0075"/>
	<advance width="1224"/>
	<outline>
		<contour>
			<point x="57.2282714844" y="888.8005371094" type="line"/>
			<point x="55.2282714844" y="970.6016845703" type="line"/>
			<point x="200.0349731445" y="1006.6016845703" type="line"/>
			<point x="292.0349731445" y="1006.6016845703" type="line"/>
			<point x="359.0349731445" y="947.6016845703" type="line"/>
			<point x="357.0349731445" y="538.1192626953" type="line"/>
			<point x="357.0349731445" y="356.8388671875" type="line" smooth="yes"/>
			<point x="357.0349731445" y="239.3505859375"/>
			<point x="460.9362182617" y="89.3004150391"/>
			<point x="516.424621582" y="89.3004150391" type="qcurve" smooth="yes"/>
			<point x="607.3831176758" y="89.3004150391"/>
			<point x="794.123840332" y="179.8464355469"/>
			<point x="851.2088012695" y="229.2579345703" type="qcurve"/>
			<point x="853.2088012695" y="483.9997558594" type="line"/>
			<point x="851.2088012695" y="858.8005371094" type="line"/>
			<point x="712.207824707" y="888.8005371094" type="line"/>
			<point x="712.207824707" y="970.6016845703" type="line"/>
			<point x="895.745300293" y="1000.6016845703" type="line"/>
			<point x="987.745300293" y="1000.6016845703" type="line"/>
			<point x="1035.745300293" y="951.6016845703" type="line"/>
			<point x="1024.745300293" y="483.9997558594" type="line"/>
			<point x="1024.745300293" y="136.8010253906" type="line"/>
			<point x="1173.7462768555" y="106.8010253906" type="line"/>
			<point x="1173.7462768555" y="23" type="line"/>
			<point x="939.2088012695" y="-11" type="line"/>
			<point x="876.2088012695" y="36" type="line"/>
			<point x="848.2857055664" y="159" type="line"/>
			<point x="803.4857788086" y="96.7846679688"/>
			<point x="609.0568237305" y="-7.8804931641"/>
			<point x="462.0026855469" y="-7.8804931641" type="qcurve" smooth="yes"/>
			<point x="352.2501831055" y="-7.8804931641"/>
			<point x="196.2292480469" y="120.9655761719"/>
			<point x="198.2292480469" y="327.1195068359" type="qcurve" smooth="yes"/>
			<point x="199.2292480469" y="403.7194213867"/>
			<point x="201.0292358398" y="511.5192871094"/>
			<point x="200.2292480469" y="566.1192626953" type="qcurve" smooth="yes"/>
			<point x="194.2292480469" y="858.8005371094" type="line"/>
		</contour>
	</outline>
	<anchor name="bottom" x="622" y="0"/>
	<anchor name="ogonek" x="1030" y="20"/>
	<anchor name="top" x="622" y="1000"/>
	<anchor name="topright" x="1005" y="1000"/>
	<anchor name="cy_descender" x="1178" y="80"/>
</glyph>
<glyph name="v" format="2">
	<unicode hex="0076"/>
	<advance width="1034"/>
	<outline>
		<contour>
			<point x="-17.6937866211" y="913.6007080078" type="line"/>
			<point x="-17.6937866211" y="999.6018066406" type="line"/>
			<point x="449.5750732422" y="999.6018066406" type="line"/>
			<point x="449.5750732422" y="913.6007080078" type="line"/>
			<point x="315.5740966797" y="877.6007080078" type="line"/>
			<point x="471.8386230469" y="437.9216918945" type="line"/>
			<point x="522.0811157227" y="230.0115966797" type="line"/>
			<point x="548.9450073242" y="118.6828613281" type="line"/>
			<point x="548.9450073242" y="118.6828613281" type="line"/>
			<point x="575.4429931641" y="228.0204467773" type="line"/>
			<point x="668.8076171875" y="507.2592773438" type="line"/>
			<point x="788.7684936523" y="881.6007080078" type="line"/>
			<point x="650.7675170898" y="913.6007080078" type="line"/>
			<point x="650.7675170898" y="999.6018066406" type="line"/>
			<point x="1069.5930175781" y="999.6018066406" type="line"/>
			<point x="1069.5930175781" y="913.6007080078" type="line"/>
			<point x="928.5920410156" y="881.6007080078" type="line"/>
			<point x="785.1657104492" y="469.7556152344" type="line"/>
			<point x="622.043762207" y="3.9233398438" type="line"/>
			<point x="420.1771850586" y="3.9233398438" type="line"/>
			<point x="292.1829833984" y="427.58984375" type="line"/>
			<point x="108.3071899414" y="878.6007080078" type="line"/>
		</contour>
	</outline>
	<anchor name="bottom" x="513" y="0"/>
	<anchor name="top" x="513" y="1000"/>
</glyph>
<glyph name="w" format="2">
	<unicode hex="0077"/>
	<advance width="1617"/>
	<outline>
		<contour>
			<point x="398.6526489258" y="3.9233398438" type="line"/>
			<point x="273.887512207" y="428.3894042969" type="line"/>
			<point x="118.7891235352" y="878.6007080078" type="line"/>
			<point x="-6.2118530273" y="913.6007080078" type="line"/>
			<point x="-6.2118530273" y="999.6018066406" type="line"/>
			<point x="382.0178222656" y="999.6018066406" type="line"/>
			<point x="387.0178222656" y="913.6007080078" type="line"/>
			<point x="295.0168457031" y="878.6007080078" type="line"/>
			<point x="417.626159668" y="430.8540649414" type="line"/>
			<point x="483" y="294" type="line"/>
			<point x="521" y="180" type="line"/>
			<point x="531" y="180" type="line"/>
			<point x="568" y="294" type="line"/>
			<point x="617.9774780273" y="342.8914794922" type="line"/>
			<point x="725" y="747" type="line"/>
			<point x="629.4954833984" y="878.6007080078" type="line"/>
			<point x="514.4945068359" y="913.6007080078" type="line"/>
			<point x="514.4945068359" y="999.6018066406" type="line"/>
			<point x="944.4869384766" y="999.6018066406" type="line"/>
			<point x="944.4869384766" y="913.6007080078" type="line"/>
			<point x="844.4859619141" y="878.6007080078" type="line"/>
			<point x="976.3109741211" y="387.9868164062" type="line"/>
			<point x="1045" y="294" type="line"/>
			<point x="1082" y="180" type="line"/>
			<point x="1092" y="180" type="line"/>
			<point x="1128" y="294" type="line"/>
			<point x="1203.5501098633" y="462.5457763672" type="line"/>
			<point x="1340.9993286133" y="875.6007080078" type="line"/>
			<point x="1198.9983520508" y="913.6007080078" type="line"/>
			<point x="1198.9983520508" y="999.6018066406" type="line"/>
			<point x="1632.4940795898" y="999.6018066406" type="line"/>
			<point x="1632.4940795898" y="913.6007080078" type="line"/>
			<point x="1489.4931030273" y="878.6007080078" type="line"/>
			<point x="1308" y="496" type="line"/>
			<point x="1198.5981445312" y="3.9233398438" type="line"/>
			<point x="926.0526123047" y="3.9233398438" type="line"/>
			<point x="830" y="480" type="line"/>
			<point x="790" y="595" type="line"/>
			<point x="780" y="595" type="line"/>
			<point x="741" y="480" type="line"/>
			<point x="656.8306274414" y="3.9233398438" type="line"/>
		</contour>
	</outline>
	<anchor name="bottom" x="787" y="0"/>
	<anchor name="top" x="787" y="1000"/>
</glyph>
<glyph name="x" format="2">
	<unicode hex="0078"/>
	<advance width="1247"/>
	<outline>
		<contour>
			<point x="86.6611938477" y="0" type="line"/>
			<point x="86.6611938477" y="81.0009765625" type="line"/>
			<point x="257.6621704102" y="115.0009765625" type="line"/>
			<point x="444" y="480" type="line"/>
			<point x="211.2422485352" y="878.6007080078" type="line"/>
			<point x="101.2412719727" y="913.6007080078" type="line"/>
			<point x="101.2412719727" y="999.6018066406" type="line"/>
			<point x="477.4531860352" y="999.6018066406" type="line"/>
			<point x="477.4531860352" y="913.6007080078" type="line"/>
			<point x="381.4522094727" y="876.6007080078" type="line"/>
			<point x="454" y="701" type="line"/>
			<point x="527" y="602" type="line"/>
			<point x="537" y="602" type="line"/>
			<point x="603" y="701" type="line"/>
			<point x="807.3137817383" y="882.6007080078" type="line"/>
			<point x="661.3128051758" y="913.6007080078" type="line"/>
			<point x="661.3128051758" y="999.6018066406" type="line"/>
			<point x="1121.75" y="999.6018066406" type="line"/>
			<point x="1121.75" y="913.6007080078" type="line"/>
			<point x="951.7490234375" y="880.6007080078" type="line"/>
			<point x="594" y="524" type="line"/>
			<point x="1031.4108276367" y="117.0009765625" type="line"/>
			<point x="1171.4118041992" y="81.0009765625" type="line"/>
			<point x="1171.4118041992" y="0" type="line"/>
			<point x="714.8031616211" y="0" type="line"/>
			<point x="714.8031616211" y="81.0009765625" type="line"/>
			<point x="825.8041381836" y="115.0009765625" type="line"/>
			<point x="584" y="305" type="line"/>
			<point x="511" y="402" type="line"/>
			<point x="501" y="402" type="line"/>
			<point x="439" y="305" type="line"/>
			<point x="410.2750244141" y="117.0009765625" type="line"/>
			<point x="592.2760009766" y="81.0009765625" type="line"/>
			<point x="592.2760009766" y="0" type="line"/>
		</contour>
	</outline>
	<anchor name="bottom" x="522" y="0"/>
	<anchor name="top" x="522" y="1000"/>
	<anchor name="cy_descender" x="1043" y="80"/>
</glyph>
<glyph name="y" format="2">
	<unicode hex="0079"/>
	<advance width="1004"/>
	<outline>
		<contour>
			<point x="10.8595581055" y="913.6007080078" type="line"/>
			<point x="10.8595581055" y="999.6018066406" type="line"/>
			<point x="447.7809448242" y="999.6018066406" type="line"/>
			<point x="447.7809448242" y="913.6007080078" type="line"/>
			<point x="311.7799682617" y="877.6007080078" type="line"/>
			<point x="418.5459594727" y="490.7440185547" type="line"/>
			<point x="486" y="301" type="line"/>
			<point x="523" y="187" type="line"/>
			<point x="533" y="187" type="line"/>
			<point x="570" y="301" type="line"/>
			<point x="663.8060302734" y="502.6502075195" type="line"/>
			<point x="791.2327880859" y="877.6007080078" type="line"/>
			<point x="642.2318115234" y="913.6007080078" type="line"/>
			<point x="642.2318115234" y="999.6018066406" type="line"/>
			<point x="1077.0010375977" y="999.6018066406" type="line"/>
			<point x="1077.0010375977" y="913.6007080078" type="line"/>
			<point x="929.0000610352" y="881.6007080078" type="line"/>
			<point x="778.2340698242" y="461.1497802734" type="line"/>
			<point x="619.4761962891" y="-165.4869995117" type="line" smooth="yes"/>
			<point x="533.323059082" y="-337.4625854492"/>
			<point x="303.8036499023" y="-493.4813232422"/>
			<point x="193.5033569336" y="-493.4813232422" type="qcurve"/>
			<point x="16.964050293" y="-426.4985351562" type="line"/>
			<point x="16.964050293" y="-326.0578613281" type="line"/>
			<point x="149.6527099609" y="-326.0578613281" type="line" smooth="yes"/>
			<point x="203.6393432617" y="-326.0578613281"/>
			<point x="427.1657714844" y="-273.4491577148"/>
			<point x="468.5250244141" y="-217.6802368164" type="qcurve" smooth="yes"/>
			<point x="232.6242675781" y="-38.1313476562" type="line"/>
			<point x="690.6893310547" y="-38.1313476562" type="line"/>
			<point x="230.2188720703" y="508.5093994141" type="line"/>
			<point x="130.860534668" y="878.6007080078" type="line"/>
		</contour>
	</outline>
	<anchor name="bottom" x="782" y="0"/>
	<anchor name="top" x="524" y="1000"/>
</glyph>
<glyph name="z" format="2">
	<unicode hex="007A"/>
	<advance width="905"/>
	<outline>
		<contour>
			<point x="97.085144043" y="0" type="line"/>
			<point x="97.085144043" y="103.072265625" type="line"/>
			<point x="644.6566772461" y="875.1783447266" type="line"/>
			<point x="279.8876953125" y="875.1783447266" type="line"/>
			<point x="191.4057617188" y="698.1302490234" type="line"/>
			<point x="93.40625" y="698.1302490234" type="line"/>
			<point x="93.40625" y="999.6018066406" type="line"/>
			<point x="802.0847167969" y="999.6018066406" type="line"/>
			<point x="802.0847167969" y="894.9367675781" type="line"/>
			<point x="241.6939697266" y="124.4234619141" type="line"/>
			<point x="702.2120361328" y="124.4234619141" type="line"/>
			<point x="792.6939697266" y="293.4715576172" type="line"/>
			<point x="889.6934814453" y="293.4715576172" type="line"/>
			<point x="889.6934814453" y="0" type="line"/>
		</contour>
	</outline>
	<anchor name="bottom" x="443" y="0"/>
	<anchor name="top" x="443" y="1000"/>
	<anchor name="_liga" x="0" y="0"/>
</glyph>
<glyph name="idotless" format="2">
	<unicode hex="0131"/>
	<advance width="565"/>
	<outline>
		<contour>
			<point x="88.9714355469" y="0" type="line"/>
			<point x="88.9714355469" y="81.0009765625" type="line"/>
			<point x="215.9724121094" y="116.0009765625" type="line"/>
			<point x="217.9724121094" y="502" type="line"/>
			<point x="216.9724121094" y="855.8006591797" type="line"/>
			<point x="87.9714355469" y="890.8006591797" type="line"/>
			<point x="87.9714355469" y="972.6018066406" type="line"/>
			<point x="269.9704589844" y="1004.6784667969" type="line"/>
			<point x="334.9704589844" y="1004.6784667969" type="line"/>
			<point x="389.9704589844" y="955.6784667969" type="line"/>
			<point x="382.9704589844" y="502" type="line"/>
			<point x="384.9704589844" y="116.0009765625" type="line"/>
			<point x="499.9714355469" y="81.0009765625" type="line"/>
			<point x="499.9714355469" y="0" type="line"/>
		</contour>
	</outline>
	<anchor name="bottom" x="320" y="0"/>
	<anchor name="top" x="320" y="1000"/>
	<anchor name="ogonek" x="513" y="0"/>
	<anchor name="liga" x="639" y="0"/>
</glyph>
<glyph name="jdotless" format="2">
	<advance width="525"/>
	<outline>
		<contour>
			<point x="-50.3527832031" y="-479.9237060547" type="qcurve"/>
			<point x="-56.3527832031" y="-376.3221435547" type="line"/>
			<point x="94.8596191406" y="-376.7221679688"/>
			<point x="206.9581298828" y="-199.4533691406"/>
			<point x="207.0295410156" y="-90.5931396484" type="qcurve" smooth="yes"/>
			<point x="209.0295410156" y="511.6018066406" type="line"/>
			<point x="208.0295410156" y="855.8006591797" type="line"/>
			<point x="74.0285644531" y="890.8006591797" type="line"/>
			<point x="74.0285644531" y="972.6018066406" type="line"/>
			<point x="258.0275878906" y="1004.6784667969" type="line"/>
			<point x="322.0275878906" y="1004.6784667969" type="line"/>
			<point x="377.0275878906" y="951.6784667969" type="line"/>
			<point x="367.0275878906" y="511.6018066406" type="line"/>
			<point x="372.0275878906" y="50.9322509766" type="line" smooth="yes"/>
			<point x="375.0275878906" y="-232.0677490234"/>
			<point x="206.9345092773" y="-508.6544799805"/>
		</contour>
	</outline>
	<anchor name="bottom" x="278" y="-436"/>
	<anchor name="top" x="278" y="1000"/>
	<anchor name="_liga" x="0" y="0"/>
</glyph>
